<?xml version="1.0" encoding="UTF-8"?>
<svg version="1.1" xmlns="http://www.w3.org/2000/svg" viewBox="173 321 910 533">

<path d="M0 0 C2.07353427 -0.00218088 4.14653056 -0.0203655 6.2199707 -0.03930664 C15.9713469 -0.08088301 24.66783729 0.75181531 33.73461914 4.41357422 C35.94615333 5.24937761 38.16617891 5.85519424 40.44848633 6.47045898 C45.7555346 8.04945164 50.28298319 10.36183312 55.02661133 13.18530273 C55.84436035 13.66660645 56.66210938 14.14791016 57.50463867 14.64379883 C65.12288649 19.22487144 72.05863343 24.37586801 78.77661133 30.18530273 C79.59258789 30.8878418 80.40856445 31.59038086 81.24926758 32.31420898 C90.93768494 41.31914012 97.77589 52.89118068 103.78442383 64.55249023 C104.53132729 65.99338013 104.53132729 65.99338013 105.2933197 67.46337891 C113.49400986 83.36625212 121.45505847 99.39285479 129.44921875 115.40014648 C131.85560705 120.21862156 134.26562188 125.03527232 136.67659855 129.85145283 C153.85866893 164.18091303 153.85866893 164.18091303 161.11843872 179.52189636 C166.62090107 191.1309693 172.45703443 202.57620878 178.25244141 214.04101562 C179.75234574 217.01050632 181.24717557 219.98250978 182.74145508 222.95483398 C183.41337135 224.2784771 183.41337135 224.2784771 184.09886169 225.62886047 C186.61859593 230.64828149 188.82845338 235.70248235 190.86863708 240.93431091 C192.04059906 243.83976429 193.42930419 246.58738719 194.90551758 249.34936523 C195.46561523 250.40897461 196.02571289 251.46858398 196.6027832 252.56030273 C197.46226562 254.16905273 197.46226562 254.16905273 198.33911133 255.81030273 C199.49069478 257.9667875 200.63794298 260.12559379 201.78051758 262.28686523 C202.53570679 263.69959717 202.53570679 263.69959717 203.30615234 265.14086914 C204.41690159 267.44056084 205.32055325 269.61032089 206.17529297 272.00146484 C207.84411635 276.57212373 210.07651026 280.7551197 212.39379883 285.02514648 C217.45287124 294.49565913 222.22155303 304.08550567 226.90161133 313.74780273 C227.30469513 314.57758636 227.70777893 315.40737 228.12307739 316.26229858 C238.19931448 337.00610065 248.06842294 357.84800696 257.64428711 378.82763672 C274.12125137 414.84797793 293.32273734 443.88742218 331.91601562 458.67236328 C335.50066661 459.96814516 339.11969704 461.11187612 342.77661133 462.18530273 C343.49768066 462.39703125 344.21875 462.60875977 344.96166992 462.8269043 C376.1889726 471.56694776 412.34194231 466.33471176 440.77075195 451.11791992 C468.71867745 435.15394782 487.11886347 409.25702245 495.73364258 378.54858398 C498.06311157 369.250061 499.07345782 360.13889612 499.05508423 350.56793213 C499.06087663 349.463287 499.06666903 348.35864187 499.07263696 347.22052264 C499.08951367 343.55412986 499.0925028 339.8878639 499.09545898 336.22143555 C499.10476568 333.5792979 499.11484953 330.93717379 499.12590027 328.29504395 C499.14807906 322.62471291 499.16314846 316.95439963 499.17326736 311.28403473 C499.18790771 303.08583779 499.21345922 294.88770279 499.24159865 286.68954238 C499.28696981 273.38573678 499.32362442 260.08192221 499.35473633 246.77807617 C499.38496164 233.86139351 499.41933008 220.94473273 499.45922852 208.02807617 C499.46169006 207.23071404 499.46415161 206.43335191 499.46668775 205.61182728 C499.47906313 201.61134359 499.49151951 197.61086015 499.50401616 193.61037683 C499.60743894 160.46871447 499.69614836 127.32702883 499.77661133 94.18530273 C512.64661133 94.18530273 525.51661133 94.18530273 538.77661133 94.18530273 C538.84460345 127.44285414 538.89823318 160.70037935 538.92980732 193.95798484 C538.93355889 197.89524847 538.93744191 201.83251197 538.94140625 205.76977539 C538.94219318 206.55352686 538.94298011 207.33727833 538.94379089 208.14477985 C538.95680139 220.79139817 538.98043088 233.43797508 539.00806972 246.08456893 C539.03624576 259.08659526 539.0528132 272.08860008 539.05887681 285.09065568 C539.06296813 293.09660049 539.07583152 301.10242816 539.10036073 309.10833685 C539.11827689 315.27456364 539.11994652 321.44070341 539.11593437 327.60695267 C539.11675197 330.11653356 539.12261453 332.62611937 539.13422775 335.13567352 C539.21683718 353.92707303 538.66524709 372.98291929 532.96411133 391.06030273 C532.70404297 391.91922119 532.44397461 392.77813965 532.17602539 393.66308594 C531.40083136 396.17919372 530.59563329 398.68316248 529.77661133 401.18530273 C529.54603027 401.90411621 529.31544922 402.62292969 529.07788086 403.36352539 C517.30872166 439.42313518 490.29690263 469.99622125 456.78637695 487.42578125 C421.45278418 505.17412991 381.78601837 511.94784409 342.77661133 503.18530273 C342.01944824 503.02433105 341.26228516 502.86335938 340.48217773 502.69750977 C311.83316668 496.48036978 287.01592276 482.19019264 265.77661133 462.18530273 C265.13594727 461.6090918 264.4952832 461.03288086 263.83520508 460.43920898 C259.20819427 456.10199009 255.2940937 451.23708702 251.40161133 446.24780273 C250.89654053 445.61100586 250.39146973 444.97420898 249.87109375 444.31811523 C239.77234145 431.10461669 232.45105013 415.98540665 225.27661133 401.06030273 C224.44311724 399.33780827 223.60962112 397.6153148 222.77612305 395.89282227 C215.80428639 381.43546701 209.0345574 366.90728033 203.40942383 351.86499023 C200.84978992 345.1695835 197.78086005 338.81670375 194.52661133 332.43530273 C193.95958496 331.31148193 193.39255859 330.18766113 192.80834961 329.02978516 C189.15485871 321.81421811 185.43875029 314.63254097 181.58032227 307.52416992 C179.40421025 303.49315109 177.55655887 299.4040987 175.77661133 295.18530273 C174.40884334 292.19278148 172.99995665 289.22021415 171.58911133 286.24780273 C171.24041992 285.50723633 170.89172852 284.76666992 170.5324707 284.00366211 C168.14764546 278.96996244 165.68296407 273.9783997 163.18600464 268.9995575 C160.24460317 263.12534007 157.31187501 257.24691027 154.38919067 251.36335754 C154.0090956 250.59822259 153.62900053 249.83308764 153.23738742 249.04476678 C152.43788083 247.43516732 151.63842365 245.8255433 150.83901215 244.21589661 C141.45784167 225.32762855 132.05893308 206.44822074 122.65175056 187.572896 C117.22628204 176.68583034 111.80615337 165.79616535 106.39819336 154.90039062 C101.65709783 145.3482336 96.90603817 135.80110988 92.14316547 126.25979155 C89.63065385 121.2256929 87.12302539 116.18930052 84.6274147 111.14679909 C82.28060037 106.40531989 79.92042939 101.67072652 77.5502739 96.9408741 C76.68842964 95.21527657 75.83129759 93.48731523 74.97953796 91.75671768 C63.90406225 69.27141109 49.09600746 50.89577926 24.77661133 42.18530273 C16.82170132 39.52562156 9.45982602 38.63558064 1.08911133 38.68530273 C-0.05138672 38.69174805 -1.19188477 38.69819336 -2.36694336 38.70483398 C-22.0495585 39.12871575 -39.36357117 47.82798681 -53.51586914 61.34277344 C-60.90374472 69.31479188 -66.35890342 78.47321824 -71.47338867 87.99780273 C-72.11935041 89.18313172 -72.76642781 90.36785332 -73.41455078 91.55200195 C-74.40216274 93.35669702 -75.38914182 95.16170099 -76.37266541 96.96862793 C-79.4482528 102.61815407 -82.60806124 108.21785382 -85.78588867 113.81030273 C-90.8842061 122.80425358 -95.94405598 131.81914752 -100.98876953 140.84326172 C-104.38056594 146.90666891 -107.79094213 152.95900852 -111.21948242 159.00170898 C-115.96035167 167.35791737 -120.64183189 175.74059897 -125.22338867 184.18530273 C-129.80619715 192.63231362 -134.48808083 201.01780295 -139.23168945 209.37548828 C-142.63016767 215.36335516 -146.0038468 221.36420406 -149.35766602 227.37719727 C-155.44362102 238.28753063 -161.63337686 249.13232912 -167.89648438 259.94189453 C-171.42054992 266.03251415 -174.89487323 272.14469187 -178.28588867 278.31030273 C-182.63840397 286.22148976 -187.19211364 294.00805444 -191.76171875 301.79541016 C-196.70470001 310.24225994 -201.49297363 318.76974517 -206.25366211 327.3203125 C-209.8825476 333.82606486 -213.59595505 340.26969425 -217.4050293 346.67114258 C-221.03645047 352.80319909 -224.50675012 359.02144056 -227.97338867 365.24780273 C-232.61018248 373.57502885 -237.33045688 381.84393322 -242.16088867 390.06030273 C-247.74873953 399.57371651 -253.14356322 409.18262474 -258.47924805 418.83935547 C-264.6012197 429.90508718 -270.8714852 440.88279669 -277.16603088 451.8507843 C-279.61028693 456.11113408 -282.04385223 460.37748206 -284.47338867 464.64624023 C-285.5301914 466.50152756 -286.587119 468.35674371 -287.64407349 470.21194458 C-288.61612867 471.91918961 -289.58666558 473.62729882 -290.55712891 475.33544922 C-291.78959221 477.49701777 -293.04689144 479.64461463 -294.32861328 481.77734375 C-295.74458898 484.32412957 -296.82980625 486.62657589 -297.88574219 489.31005859 C-299.69389555 493.53236936 -301.46332699 497.38626541 -305.22338867 500.18530273 C-312.58005692 502.61178957 -320.6838627 501.59010426 -328.28588867 501.12280273 C-330.41260696 501.04749057 -332.53958083 500.97906161 -334.66674805 500.91772461 C-339.85863926 500.75306871 -345.03819753 500.49479532 -350.22338867 500.18530273 C-345.56633869 491.34572567 -340.81197052 482.59876946 -335.72338867 473.99780273 C-330.45621416 465.03063628 -325.25049565 456.03135418 -320.09838867 446.99780273 C-319.58949097 446.10576645 -319.58949097 446.10576645 -319.0703125 445.19570923 C-317.40156158 442.27027594 -315.73363156 439.34437692 -314.06616211 436.41821289 C-311.45566286 431.83842605 -308.83962515 427.26181361 -306.22338867 422.68530273 C-305.26373701 421.00562451 -304.30410193 419.32593682 -303.34448242 417.64624023 C-301.02565257 413.58809934 -298.70485875 409.53108573 -296.38354492 405.47436523 C-286.87030578 388.84598097 -277.41051775 372.18821241 -268.02026367 355.48999023 C-261.94892318 344.70537226 -255.78514473 333.98242295 -249.52441406 323.30664062 C-245.33746291 316.1466242 -241.25735245 308.93246711 -237.22338867 301.68530273 C-232.12533718 292.52867719 -226.91291628 283.44831532 -221.60961914 274.40917969 C-217.47210455 267.3494809 -213.39961616 260.25457671 -209.35449219 253.1416626 C-201.70643449 239.69538984 -193.8645042 226.37362622 -185.94799805 213.08374023 C-182.46396914 207.2283621 -179.01066658 201.35501334 -175.56616211 195.47631836 C-174.5806477 193.79485159 -173.59418275 192.11394184 -172.60717773 190.43334961 C-162.27772059 172.83928262 -152.25670127 155.17190074 -142.88598633 137.04858398 C-138.88920093 129.36138699 -134.66481263 121.82433939 -130.36083984 114.3059082 C-126.17887232 106.96476716 -122.19217463 99.53412853 -118.24874878 92.06350708 C-97.7022686 53.17507844 -97.7022686 53.17507844 -85.22338867 39.18530273 C-84.73435059 38.63583984 -84.2453125 38.08637695 -83.74145508 37.52026367 C-73.24729175 25.95089242 -59.75970285 15.20821613 -45.22338867 9.18530273 C-43.90338867 9.18530273 -42.58338867 9.18530273 -41.22338867 9.18530273 C-41.22338867 8.52530273 -41.22338867 7.86530273 -41.22338867 7.18530273 C-37.87146919 6.19833115 -34.51649604 5.22215517 -31.16088867 4.24780273 C-30.21793945 3.97000977 -29.27499023 3.6922168 -28.3034668 3.40600586 C-27.37856445 3.13852539 -26.45366211 2.87104492 -25.50073242 2.59545898 C-24.65760498 2.34932861 -23.81447754 2.10319824 -22.94580078 1.84960938 C-15.34139204 -0.00597274 -7.77213613 -0.00091362 0 0 Z " fill="#030303" transform="translate(533.223388671875,331.814697265625)"/>
<path d="M0 0 C1.92189438 0.00225678 3.84379567 0.00098956 5.76568604 -0.00354004 C10.98276933 -0.00583704 16.19838354 0.04122094 21.41512513 0.09705162 C26.86698107 0.14703607 32.31887008 0.15175939 37.7709198 0.16125488 C48.09483287 0.18612764 58.41806886 0.25178744 68.74168366 0.3320508 C80.4948055 0.42144613 92.24795955 0.46544997 104.00133669 0.50561428 C128.17859411 0.58925255 152.35525034 0.72998132 176.53198242 0.90820312 C178.30115889 4.43478782 180.06846551 7.96230642 181.83544922 11.48999023 C182.58290028 12.97983555 182.58290028 12.97983555 183.34545135 14.49977875 C186.81685781 21.43333313 190.14375784 28.40801946 193.34448242 35.47070312 C199.24059827 48.32290028 205.42994486 61.02605413 211.65698242 73.72070312 C212.14141815 74.70833649 212.62585388 75.69596985 213.12496948 76.71353149 C214.0886781 78.67809594 215.0523876 80.64265995 216.01609802 82.60722351 C216.48024612 83.55346085 216.94439423 84.49969818 217.42260742 85.47460938 C218.10668419 86.86900993 218.10668419 86.86900993 218.80458069 88.2915802 C222.04243724 94.89644718 225.24750406 101.51542175 228.40698242 108.15820312 C232.49610707 116.74120082 236.59105554 125.32124905 240.71856689 133.88586426 C241.41354042 135.33005936 242.10677208 136.77509433 242.79803467 138.22106934 C248.49630501 150.13687855 254.48338375 161.6865078 262.53198242 172.22070312 C263.25514648 173.19620117 263.25514648 173.19620117 263.99291992 174.19140625 C267.03616678 178.22089052 270.30059967 181.82037466 273.94311523 185.31762695 C275.51763936 186.89384464 276.90147222 188.53642965 278.28198242 190.28320312 C282.39276026 195.18961538 287.53353176 198.95387327 292.53198242 202.90820312 C294.56259014 204.54666671 296.55815469 206.20110887 298.53198242 207.90820312 C298.53198242 208.23820313 298.53198242 208.56820312 298.53198242 208.90820312 C292.14588897 209.03566025 285.76012713 209.12282786 279.37304688 209.18286133 C277.20332583 209.20790465 275.03368829 209.24194947 272.86425781 209.28540039 C269.73375774 209.34650085 266.60437916 209.37451542 263.47338867 209.39648438 C262.03377525 209.43519402 262.03377525 209.43519402 260.56507874 209.47468567 C247.93951831 209.47986685 240.21051339 201.57252445 231.69604492 193.07617188 C217.3579751 177.6274065 208.64653146 157.51468249 199.96679688 138.61376953 C195.25563582 128.37102333 190.35511799 118.22581519 185.40698242 108.09570312 C185.01806824 107.29920349 184.62915405 106.50270386 184.22845459 105.68206787 C181.93475135 100.98457686 181.93475135 100.98457686 179.640625 96.28729248 C176.21017204 89.25948406 172.82589506 82.21015641 169.46582031 75.1484375 C166.9912073 69.94967877 164.4941063 64.76243988 161.97729492 59.58398438 C161.06520421 57.70364672 160.15337923 55.82318041 159.24160767 53.94268799 C158.36156367 52.13086968 157.47745215 50.32102888 156.59326172 48.51123047 C156.06385986 47.41891113 155.53445801 46.3265918 154.98901367 45.20117188 C154.51439697 44.22688232 154.03978027 43.25259277 153.55078125 42.2487793 C152.53198242 39.90820312 152.53198242 39.90820312 152.53198242 37.90820312 C89.17198242 37.90820312 25.81198242 37.90820312 -39.46801758 37.90820312 C-37.94547062 34.10183573 -36.43626801 30.9486398 -34.38598633 27.45117188 C-33.48203125 25.90526367 -33.48203125 25.90526367 -32.55981445 24.328125 C-31.6171875 22.72807617 -31.6171875 22.72807617 -30.65551758 21.09570312 C-30.03870117 20.04060547 -29.42188477 18.98550781 -28.78637695 17.8984375 C-27.02508399 14.89431933 -25.26103107 11.89351411 -23.46801758 8.90820312 C-23.26265192 8.24352933 -23.05728626 7.57885553 -22.8456974 6.89404011 C-19.18550273 -2.36776408 -8.31435781 -0.13571811 0 0 Z " fill="#040303" transform="translate(444.468017578125,623.091796875)"/>
<path d="M0 0 C0.99 0.33 1.98 0.66 3 1 C1.36900249 2.80268146 -0.03820082 4.02073759 -2.1875 5.1875 C-5.89565968 7.57720291 -8.74889026 10.53508997 -11.8125 13.6875 C-12.40998047 14.29400391 -13.00746094 14.90050781 -13.62304688 15.52539062 C-15.08664185 17.01240312 -16.54396102 18.50558811 -18 20 C-18 17 -18 17 -16.77832031 15.421875 C-16.21725586 14.87015625 -15.65619141 14.3184375 -15.078125 13.75 C-14.46453125 13.1415625 -13.8509375 12.533125 -13.21875 11.90625 C-12.5690625 11.2771875 -11.919375 10.648125 -11.25 10 C-10.61578125 9.3709375 -9.9815625 8.741875 -9.328125 8.09375 C-3.01977087 1.89053511 -3.01977087 1.89053511 0 0 Z " fill="#151516" transform="translate(465,355)"/>
<path d="M0 0 C0.66 0.33 1.32 0.66 2 1 C1 3 1 3 -1 5 C-3.75372909 5.36933645 -6.20365661 5.18336678 -9 5 C-8.34 4.34 -7.68 3.68 -7 3 C-5.68 3 -4.36 3 -3 3 C-3 2.34 -3 1.68 -3 1 C-2.01 0.67 -1.02 0.34 0 0 Z " fill="#303031" transform="translate(495,338)"/>
<path d="M0 0 C0.68359375 1.734375 0.68359375 1.734375 1 4 C-0.21484375 6.140625 -0.21484375 6.140625 -1.9375 8.25 C-2.50339844 8.95640625 -3.06929688 9.6628125 -3.65234375 10.390625 C-4.31943359 11.18726563 -4.31943359 11.18726563 -5 12 C-5 8.55639368 -4.20408468 7.25204608 -2.5 4.3125 C-2.0359375 3.50425781 -1.571875 2.69601562 -1.09375 1.86328125 C-0.7328125 1.24839844 -0.371875 0.63351562 0 0 Z " fill="#2B2B2C" transform="translate(281,660)"/>
<path d="M0 0 C1.23086034 3.69258103 0.66728638 4.58206293 -1 8 C-1.95824253 9.36365283 -2.94721175 10.70794169 -4 12 C-4.66 11.67 -5.32 11.34 -6 11 C-4.02 7.37 -2.04 3.74 0 0 Z " fill="#E3E3E4" transform="translate(360,599)"/>
<path d="M0 0 C0.66 0 1.32 0 2 0 C1.25 2.875 1.25 2.875 0 6 C-1.98 6.99 -1.98 6.99 -4 8 C-2.68 5.36 -1.36 2.72 0 0 Z " fill="#E7E6E7" transform="translate(353,612)"/>
</svg>
