<?xml version="1.0" encoding="UTF-8"?>
<svg version="1.1" xmlns="http://www.w3.org/2000/svg" viewBox="174 360 1425 155">

<path d="M0 0 C13.6125 -0.061875 27.225 -0.12375 41.25 -0.1875 C45.52614258 -0.21481201 49.80228516 -0.24212402 54.20800781 -0.27026367 C59.48583984 -0.28381348 59.48583984 -0.28381348 61.96746826 -0.28633118 C63.67696485 -0.29089613 65.38645262 -0.30135919 67.09588623 -0.31672668 C82.11070836 -0.44479641 95.94931801 0.16233135 107.8125 10.59375 C115.05612831 18.27199601 116.68259487 26.98798829 116.390625 37.30078125 C115.61777486 44.61967207 113.39494156 51.76854152 108 57 C105.00493457 59.11846092 103.69349436 60 100 60 C100 60.66 100 61.32 100 62 C100.94875 62.144375 101.8975 62.28875 102.875 62.4375 C109.40700302 64.32659252 115.05317272 69.75358907 118.4921875 75.48828125 C119.45710359 77.63997371 120.28322848 79.7550175 121 82 C121.33 82.99 121.66 83.98 122 85 C122.95427357 94.85561232 121.66740068 104.5175721 116.08203125 112.8671875 C111.19168333 118.70098307 106.05941514 122.24392697 99 125 C97.948125 125.4125 96.89625 125.825 95.8125 126.25 C89.65787056 127.89123452 83.63081019 128.14266099 77.31079102 128.11352539 C76.4574993 128.11364593 75.60420759 128.11376646 74.72505856 128.11389065 C71.9846472 128.11314898 69.24430531 128.10555497 66.50390625 128.09765625 C64.80334506 128.09618452 63.10278341 128.09516523 61.40222168 128.09460449 C55.12230751 128.08937841 48.84240306 128.07541714 42.5625 128.0625 C28.516875 128.041875 14.47125 128.02125 0 128 C0 85.76 0 43.52 0 0 Z " fill="#0B0C0D" transform="translate(414,374)"/>
<path d="M0 0 C16 0 16 0 19.75 3.1875 C20.8354502 4.79023506 21.91847605 6.39461289 23 8 C24.85166812 10.14475336 26.80218217 12.19269937 28.75 14.25 C29.7968718 15.37770186 30.84243764 16.50661743 31.88671875 17.63671875 C32.40669434 18.19794434 32.92666992 18.75916992 33.46240234 19.33740234 C36.74440204 22.88621434 40.00557173 26.45413823 43.26953125 30.01953125 C45.13885919 32.06143328 47.01159841 34.10013497 48.88671875 36.13671875 C56.81432292 44.75321181 56.81432292 44.75321181 60.3125 48.8125 C64.33027155 53.44987969 68.55194766 57.89687559 72.74755859 62.37255859 C76.01528076 65.8619974 79.25560366 69.3691874 82.4375 72.9375 C87.06101869 78.11723147 91.82429609 83.16325689 96.59741211 88.20483398 C97.2085083 88.85266846 97.81960449 89.50050293 98.44921875 90.16796875 C98.98893311 90.73797607 99.52864746 91.3079834 100.0847168 91.89526367 C102.79129046 94.86956215 105.38288051 97.94669393 108 101 C108.33 67.67 108.66 34.34 109 0 C113.95 0 118.9 0 124 0 C124 42.24 124 84.48 124 128 C109 128 109 128 105.125 124.625 C104.06817621 123.09368389 103.02741759 121.5511991 102 120 C100.56675099 118.35283323 99.10681916 116.72861251 97.625 115.125 C96.86703125 114.28453125 96.1090625 113.4440625 95.328125 112.578125 C94.55984375 111.72734375 93.7915625 110.8765625 93 110 C84.42269737 100.50164474 84.42269737 100.50164474 80.75 96.25 C76.86087929 91.77932853 72.80262354 87.46813572 68.76098633 83.13598633 C65.38806009 79.51425758 62.08694942 75.84696115 58.8515625 72.1015625 C54.8485496 67.5580584 50.6978135 63.14543831 46.58056641 58.70556641 C44.04946689 55.97429344 41.52503857 53.23687484 39 50.5 C38.01042298 49.42837959 37.02083962 48.35676503 36.03125 47.28515625 C33.92479894 45.00339677 31.82105824 42.71917059 29.71875 40.43359375 C29.17992187 39.84835937 28.64109375 39.263125 28.0859375 38.66015625 C27.05920207 37.54490914 26.03311741 36.42906241 25.0078125 35.3125 C22.39370231 32.47452955 19.73054661 29.73054661 17 27 C16.67 60.33 16.34 93.66 16 128 C10.72 128 5.44 128 0 128 C0 85.76 0 43.52 0 0 Z " fill="#0D0E0F" transform="translate(682,374)"/>
<path d="M0 0 C36.3 0 72.6 0 110 0 C110 4.62 110 9.24 110 14 C78.65 14 47.3 14 15 14 C15 27.53 15 41.06 15 55 C43.38 55 71.76 55 101 55 C101 59.95 101 64.9 101 70 C72.62 70 44.24 70 15 70 C15 84.52 15 99.04 15 114 C46.68 114 78.36 114 111 114 C111 118.62 111 123.24 111 128 C74.37 128 37.74 128 0 128 C0 85.76 0 43.52 0 0 Z " fill="#0D0E0F" transform="translate(873,374)"/>
<path d="M0 0 C1.73938843 0.0012085 1.73938843 0.0012085 3.51391602 0.00244141 C11.34505185 0.05863387 18.64013029 0.57641502 26.3125 2.1875 C27.22128906 2.32027344 28.13007812 2.45304687 29.06640625 2.58984375 C35.80966613 3.59701628 46.35573679 5.23073679 51.3125 10.1875 C51.38569621 12.88404854 51.40492537 15.55441458 51.375 18.25 C51.37048828 19.00861328 51.36597656 19.76722656 51.36132812 20.54882812 C51.3495068 22.42841871 51.33157078 24.30796899 51.3125 26.1875 C45.03019677 24.1643854 38.92386353 21.87491723 32.81640625 19.37109375 C23.84348688 16.34010761 15.13075464 15.84198283 5.71020508 15.87182617 C3.64544925 15.87496887 1.58215624 15.85150865 -0.48242188 15.82617188 C-12.26532594 15.76966798 -26.40890332 16.03285704 -35.6875 24.1875 C-40.12606717 29.08130482 -41.04904676 32.09839952 -40.96484375 38.58203125 C-40.52002459 42.76082535 -39.24168806 44.82672623 -36.6875 48.1875 C-25.07037161 56.82671661 -11.02022805 56.67525535 2.88818359 57.47802734 C42.24102669 59.77446674 42.24102669 59.77446674 56.3125 75.1875 C62.56805097 83.75412953 62.20343554 94.0080876 61.3125 104.1875 C60.47254177 107.62037277 59.24052363 110.2447271 57.3125 113.1875 C56.961875 113.80625 56.61125 114.425 56.25 115.0625 C50.26652468 124.70254357 38.64601216 129.00859691 28.12939453 131.75830078 C18.83659071 133.77315206 9.39845414 133.58213125 -0.0625 133.5625 C-0.95223511 133.56262085 -1.84197021 133.5627417 -2.75866699 133.56286621 C-16.07730486 133.53706071 -28.81967722 132.92866492 -41.6875 129.1875 C-42.94304687 128.82914063 -44.19859375 128.47078125 -45.4921875 128.1015625 C-49.63886494 126.80389638 -53.06385335 125.60326444 -56.6875 123.1875 C-56.9083564 120.23685852 -56.96810989 117.50381769 -56.875 114.5625 C-56.86146484 113.76070313 -56.84792969 112.95890625 -56.83398438 112.1328125 C-56.79859051 110.15075622 -56.74478234 108.16904449 -56.6875 106.1875 C-52.69828748 107.46428336 -48.89168769 108.93192941 -45.0625 110.625 C-23.63013096 119.59914467 6.1718097 122.77355017 28.4765625 115.390625 C35.72802764 112.31424585 40.66033148 108.96140334 44.5625 101.9375 C46.04322983 96.50815728 46.2058676 91.94114751 43.625 86.875 C35.09381997 76.96038538 24.18771561 75.80257928 11.78977966 74.83157349 C8.73548899 74.60643375 5.6805637 74.39460765 2.625 74.1875 C-38.6047138 71.36837427 -38.6047138 71.36837427 -52.02734375 57.171875 C-58.73944379 49.1489413 -58.38255067 39.11241476 -57.6875 29.1875 C-56.0350016 20.93617353 -51.21892949 15.28377234 -44.6875 10.1875 C-30.94984447 1.5090914 -15.86347336 -0.01139535 0 0 Z " fill="#0E0F10" transform="translate(1097.6875,370.8125)"/>
<path d="M0 0 C5.28 0 10.56 0 16 0 C16 18.15 16 36.3 16 55 C45.37 55 74.74 55 105 55 C105 36.85 105 18.7 105 0 C110.28 0 115.56 0 121 0 C121 42.24 121 84.48 121 128 C116.05 128 111.1 128 106 128 C106 108.53 106 89.06 106 69 C76.3 69 46.6 69 16 69 C16 88.47 16 107.94 16 128 C10.72 128 5.44 128 0 128 C0 85.76 0 43.52 0 0 Z " fill="#0F1011" transform="translate(1220,374)"/>
<path d="M0 0 C5.28 0 10.56 0 16 0 C16.01458252 2.49224121 16.02916504 4.98448242 16.04418945 7.55224609 C16.09467331 15.8144863 16.16129237 24.07654076 16.23571491 32.33859825 C16.28031841 37.34469345 16.31959637 42.35070914 16.34643555 47.35693359 C16.3725688 52.19410174 16.41304133 57.03096229 16.46318626 61.867939 C16.47978746 63.70733418 16.49134354 65.5467825 16.49761391 67.38624191 C16.55209885 81.90903201 17.48976016 93.39870377 27.5234375 104.71875 C38.02959185 114.76365855 52.00703493 115.46377759 65.671875 115.28125 C72.30215325 115.04762497 77.89145015 113.66920874 84 111 C85.25683594 110.45666016 85.25683594 110.45666016 86.5390625 109.90234375 C95.70905428 105.3786856 101.41934103 97.4399191 105 88 C105.97974336 83.26004436 106.16807638 78.61391725 106.20532227 73.79150391 C106.21522186 72.99083496 106.22512146 72.19016602 106.23532104 71.36523438 C106.26674609 68.7357065 106.29161784 66.1061606 106.31640625 63.4765625 C106.33699221 61.64667305 106.3579891 59.81678818 106.37937927 57.98690796 C106.43443042 53.18328574 106.48391412 48.37962182 106.53222656 43.57592773 C106.58256579 38.66907056 106.63818687 33.76227354 106.69335938 28.85546875 C106.80073341 19.23702877 106.90173559 9.61853736 107 0 C111.95 0 116.9 0 122 0 C122.09291665 11.43138152 122.16387479 22.86267233 122.20724869 34.29435539 C122.22807208 39.60327423 122.25629357 44.91193359 122.30175781 50.22070312 C122.34540305 55.34950414 122.36917653 60.47805648 122.37950897 65.60702896 C122.38686691 67.55814653 122.4012349 69.50925137 122.42292023 71.4602623 C122.63066553 90.93566447 122.63066553 90.93566447 118 99 C117.50757813 99.96292969 117.01515625 100.92585938 116.5078125 101.91796875 C107.58771368 116.55801795 96.41941172 124.06994468 80 129 C79.40767578 129.17958252 78.81535156 129.35916504 78.20507812 129.54418945 C72.93157392 130.63427275 67.36263103 130.22865619 62 130.25 C60.10314453 130.2809375 60.10314453 130.2809375 58.16796875 130.3125 C41.82729482 130.37981483 26.06330467 125.86143079 14.03125 114.30078125 C4.16555275 103.12598186 -0.18165137 92.25345212 -0.11352539 77.42431641 C-0.11367142 76.58463318 -0.11381744 75.74494995 -0.1139679 74.87982178 C-0.11327445 72.12037521 -0.10550874 69.36099719 -0.09765625 66.6015625 C-0.09579005 64.68199704 -0.0943671 62.7624311 -0.09336853 60.84286499 C-0.08955925 55.8024564 -0.07974257 50.76207684 -0.06866455 45.72167969 C-0.05841623 40.5735717 -0.05386359 35.42545901 -0.04882812 30.27734375 C-0.03811883 20.18488106 -0.02053494 10.09244749 0 0 Z " fill="#0F1011" transform="translate(1466,374)"/>
<path d="M0 0 C7.27081756 5.64393118 11.12475366 14.9449586 15.10546875 23.0078125 C15.62256912 24.04388641 16.13966949 25.07996033 16.67243958 26.14743042 C17.75669929 28.32263049 18.83809683 30.49925941 19.91674805 32.67724609 C21.56260602 36.00021404 23.21703164 39.31880284 24.87304688 42.63671875 C25.9301874 44.76016787 26.98684471 46.88385764 28.04296875 49.0078125 C28.53363327 49.99339142 29.02429779 50.97897034 29.52983093 51.99441528 C31.95938367 56.90416464 34.21762386 61.83876339 36.375 66.875 C38.05147938 70.38308937 39.78629779 73.86146809 41.5234375 77.33984375 C42.01784332 78.3319838 42.51224915 79.32412384 43.02163696 80.34632874 C44.06447943 82.43705866 45.1083949 84.52725369 46.15332031 86.61694336 C47.74200749 89.79650397 49.32426863 92.97920812 50.90625 96.16210938 C51.9240865 98.20071693 52.9423032 100.23913471 53.9609375 102.27734375 C54.42881683 103.22028793 54.89669617 104.16323212 55.37875366 105.13475037 C57.84003673 110.04050439 60.4285185 114.73138315 63.47158813 119.30226135 C64.375 120.875 64.375 120.875 64.375 122.875 C59.095 122.875 53.815 122.875 48.375 122.875 C47.71218018 121.48369873 47.04936035 120.09239746 46.36645508 118.65893555 C39.6751343 104.63051403 32.90082949 90.64478624 26.0625 76.6875 C25.56631165 75.6739444 25.07012329 74.66038879 24.55889893 73.61611938 C17.02264429 58.22416968 9.44340657 42.85508384 1.71972656 27.55615234 C0.80026144 25.7228978 -0.10878263 23.88438935 -1.00878906 22.04150391 C-1.44674805 21.14737793 -1.88470703 20.25325195 -2.3359375 19.33203125 C-2.7179834 18.54417236 -3.1000293 17.75631348 -3.49365234 16.94458008 C-5.56850282 13.14904545 -8.1749134 10.72088385 -11.875 8.5625 C-16.56474533 7.39006367 -21.11684996 6.8172422 -25.67895508 8.74121094 C-30.98616392 11.92909592 -33.41887909 15.00494587 -36 20.5625 C-36.84788444 22.27331502 -37.69836422 23.98284509 -38.55078125 25.69140625 C-39.02725098 26.65965332 -39.5037207 27.62790039 -39.99462891 28.62548828 C-41.83271258 32.28899438 -43.73993755 35.91060728 -45.66796875 39.52734375 C-46.0301651 40.2067804 -46.39236145 40.88621704 -46.76553345 41.58624268 C-47.52006406 43.00066668 -48.27481873 44.41497117 -49.02978516 45.8291626 C-56.00568886 58.90971758 -62.81917099 72.06807883 -69.56350708 85.26916504 C-75.2693255 96.42092734 -81.27095385 107.36338024 -87.6796875 118.13037109 C-88.77150547 120.02465224 -88.77150547 120.02465224 -89.625 122.875 C-94.905 122.875 -100.185 122.875 -105.625 122.875 C-104.20833568 119.33333921 -102.8157963 116.22479321 -101.0078125 112.91015625 C-100.48993164 111.95753906 -99.97205078 111.00492187 -99.43847656 110.0234375 C-98.8812793 109.00507813 -98.32408203 107.98671875 -97.75 106.9375 C-96.87553223 105.33068359 -96.87553223 105.33068359 -95.98339844 103.69140625 C-93.22866199 98.63235587 -90.46357849 93.57900051 -87.6953125 88.52734375 C-81.38128377 76.99685489 -75.17785524 65.41197205 -69.02340698 53.79580688 C-63.08487347 42.58963821 -57.07608783 31.42458471 -50.9597168 20.31420898 C-49.98712051 18.53677905 -49.02366656 16.75433742 -48.06567383 14.96899414 C-47.27906372 13.50707642 -47.27906372 13.50707642 -46.4765625 12.015625 C-46.0017041 11.1277832 -45.5268457 10.23994141 -45.03759766 9.32519531 C-41.15918278 2.59796204 -36.370715 -2.20976167 -28.8671875 -4.7109375 C-18.53479731 -6.61900956 -8.90331836 -5.56939179 0 0 Z " fill="#0F1011" transform="translate(289.625,379.125)"/>
<path d="M0 0 C16.48917717 -0.16043524 16.48917717 -0.16043524 23.5859375 -0.1953125 C28.40480444 -0.2191083 33.22336378 -0.24707904 38.04199219 -0.30175781 C41.93239433 -0.34562106 45.82246604 -0.36922115 49.71309662 -0.37950897 C51.18808942 -0.38682855 52.66306672 -0.40111924 54.13791656 -0.42292023 C65.34633386 -0.5818222 77.17860197 0.25438221 86 8 C90.08515896 12.39018416 91.38762345 16.46786449 91.6875 22.4375 C91.42059518 29.01098445 89.51154061 33.25209166 85 38 C77.37273893 44.07067718 69.61643091 45.13160006 60.05493164 45.11352539 C59.40042023 45.11367142 58.74590881 45.11381744 58.07156372 45.1139679 C55.93439273 45.11327801 53.79731178 45.10552946 51.66015625 45.09765625 C50.16800484 45.09578878 48.67585281 45.09436643 47.18370056 45.09336853 C43.27601396 45.08956925 39.36836514 45.07976135 35.46069336 45.06866455 C30.76160208 45.05658555 26.06249809 45.05203585 21.36339569 45.04621124 C14.2422376 45.03654798 7.12116224 45.0173734 0 45 C0 30.15 0 15.3 0 0 Z " fill="#F7F7F7" transform="translate(429,443)"/>
<path d="M0 0 C16.31982886 -0.16043524 16.31982886 -0.16043524 23.328125 -0.1953125 C28.09230587 -0.21913496 32.85617642 -0.24717931 37.62011719 -0.30175781 C41.46512353 -0.34552794 45.30979667 -0.36920204 49.15503311 -0.37950897 C50.61493289 -0.38684494 52.07481643 -0.40116906 53.5345726 -0.42292023 C63.42994464 -0.5643731 72.04581999 -0.11091533 79.9375 6.4375 C84.48086117 12.08228207 85.54643399 15.78689396 85.3515625 22.98828125 C84.70319818 28.54260222 82.61463526 32.24289693 78.875 36.3125 C69.99665598 41.52370192 60.58311331 41.40644812 50.5859375 41.29296875 C49.12049803 41.28736115 47.65505286 41.28309657 46.18960571 41.28010559 C42.36566148 41.26874821 38.54206876 41.23936178 34.71826172 41.20599365 C30.11260744 41.16964459 25.50683446 41.15608813 20.90107727 41.13863373 C13.93380836 41.109717 6.96730804 41.05216786 0 41 C0 27.47 0 13.94 0 0 Z " fill="#FAFAFA" transform="translate(429,388)"/>
<path d="M0 0 C5.28 0 10.56 0 16 0 C16 42.24 16 84.48 16 128 C10.72 128 5.44 128 0 128 C0 85.76 0 43.52 0 0 Z " fill="#131414" transform="translate(599,374)"/>
<path d="M0 0 C2.09496678 0.00094871 4.19008458 0.03477991 6.28417969 0.09521484 C7.94039337 0.10794937 7.94039337 0.10794937 9.63006592 0.12094116 C13.15638838 0.15452608 16.68042352 0.22982128 20.20605469 0.30615234 C22.59664666 0.33624507 24.98727448 0.36362207 27.37792969 0.38818359 C33.238085 0.45433409 39.09690646 0.55473509 44.95605469 0.68115234 C45.79424626 2.30365175 46.62646629 3.92923731 47.45605469 5.55615234 C47.92011719 6.46107422 48.38417969 7.36599609 48.86230469 8.29833984 C49.95605469 10.68115234 49.95605469 10.68115234 49.95605469 12.68115234 C29.82605469 12.68115234 9.69605469 12.68115234 -11.04394531 12.68115234 C-6.95865928 0.42529425 -6.95865928 0.42529425 0 0 Z " fill="#0D0E0E" transform="translate(249.0439453125,451.31884765625)"/>
<path d="M0 0 C28.05 0 56.1 0 85 0 C85 0.33 85 0.66 85 1 C90.94 1.33 96.88 1.66 103 2 C103 2.33 103 2.66 103 3 C66.7 3 30.4 3 -7 3 C-7 2.67 -7 2.34 -7 2 C-3.535 1.505 -3.535 1.505 0 1 C0 0.67 0 0.34 0 0 Z " fill="#F2F2F2" transform="translate(880,371)"/>
<path d="M0 0 C24.09 0 48.18 0 73 0 C73 0.33 73 0.66 73 1 C75.31 1.33 77.62 1.66 80 2 C80 2.33 80 2.66 80 3 C52.94 3 25.88 3 -2 3 C-1.34 2.67 -0.68 2.34 0 2 C0 1.34 0 0.68 0 0 Z " fill="#F5F5F5" transform="translate(416,371)"/>
<path d="M0 0 C1.32 1.32 2.64 2.64 4 4 C3.01 4 2.02 4 1 4 C1 35.68 1 67.36 1 100 C0.67 100 0.34 100 0 100 C0 67 0 34 0 0 Z " fill="#EFEEEF" transform="translate(698,400)"/>
<path d="M0 0 C0.66 0.99 1.32 1.98 2 3 C-6.55842714 12.14491834 -6.55842714 12.14491834 -12 14 C-14.171875 13.55859375 -14.171875 13.55859375 -16 13 C-15.43152344 12.731875 -14.86304688 12.46375 -14.27734375 12.1875 C-8.15293245 9.07928458 -4.18198427 5.41909859 0 0 Z " fill="#212223" transform="translate(1566,472)"/>
<path d="M0 0 C1.45212891 0.01160156 1.45212891 0.01160156 2.93359375 0.0234375 C3.90425781 0.01570313 4.87492187 0.00796875 5.875 0 C6.69871094 0.13148438 7.52242187 0.26296875 8.37109375 0.3984375 C9.03109375 1.3884375 9.69109375 2.3784375 10.37109375 3.3984375 C5.09109375 3.3984375 -0.18890625 3.3984375 -5.62890625 3.3984375 C-2.62890625 0.3984375 -2.62890625 0.3984375 0 0 Z " fill="#F4F5F4" transform="translate(1471.62890625,370.6015625)"/>
<path d="M0 0 C3.63 0 7.26 0 11 0 C11.33 0.99 11.66 1.98 12 3 C7.38 3 2.76 3 -2 3 C-1.34 2.67 -0.68 2.34 0 2 C0 1.34 0 0.68 0 0 Z " fill="#F5F5F4" transform="translate(602,371)"/>
<path d="M0 0 C1.17539996 0.92652701 2.34010577 1.86663387 3.5 2.8125 C4.1496875 3.33457031 4.799375 3.85664063 5.46875 4.39453125 C7 6 7 6 7 9 C5.82460004 8.07347299 4.65989423 7.13336613 3.5 6.1875 C2.52546875 5.40439453 2.52546875 5.40439453 1.53125 4.60546875 C0 3 0 3 0 0 Z " fill="#151618" transform="translate(762,446)"/>
<path d="M0 0 C7.42857143 -0.28571429 7.42857143 -0.28571429 11 2 C11 2.66 11 3.32 11 4 C7.37 3.01 3.74 2.02 0 1 C0 0.67 0 0.34 0 0 Z " fill="#3B3C3B" transform="translate(500,444)"/>
<path d="M0 0 C0.6875 1.6875 0.6875 1.6875 1 4 C-0.3125 6.75 -0.3125 6.75 -2 9 C-2.66 9 -3.32 9 -4 9 C-2.94124926 5.59687262 -1.99097846 2.98646769 0 0 Z " fill="#393A3A" transform="translate(196,479)"/>
</svg>
